<svg version="1.1" id="Layer_1" xmlns="http://www.w3.org/2000/svg" x="0" y="0" viewBox="0 0 283.5 283.5" xml:space="preserve"><style type="text/css">.st0{fill:#e84e0f}.st1{fill:#fff}</style><path class="st0" d="M0 0h283.5v283.5H0z"/><path class="st1" d="M245.3 101.6c-.4-.3-20.5 1.5-29.9 1.8.2-1.2.2-3.2 0-5.5 5-.3 9.3-.5 9.9-.5 2-9.4 4.6-21.3-3.5-31-3.6-4.3-9.2-5.8-14.9-6-5.3-.2-18 2.3-18.2 2.8-.2.5.6 1.8 1.1 2.6.5.7 2.4 3.6 3.4 5.4 1.9 3.5 3.3 6.8 4.2 9.8 3.3 10.7 1.5 18.1 1.5 18.1s5.8-.4 12-.8c0 2.3-.1 4.2-.2 5.3-8.7 0-20.9-.3-28.1-.7l-.7 5.8 8.6.3-3.9 2.5c3.6 4.6 15.5 14.1 29 13.4 16.5-1.1 30.2-22.9 29.7-23.3zm-46.2-34.5c18.3-4.1 24.1 8.6 21.7 25.4-.1 0-2.7.3-5.7.6-.4-4.5-1-9.1-1.4-10.8l-3.4 3.1c.2 1.5.4 4.8.5 8.2-3.4.4-6.3.7-6.3.7s2.2-16-5.4-27.2zm15.8 51c-7.5.9-23-9.2-23-9.2 6 .7 34.4-.5 40-.5-1.9 1.9-7.1 8.5-17 9.7zm-114.7 30.4c-.7-1.8-1.6-3.1-3.1-4.6-1.5-1.5-3.8-3.4-4.3-3.2-.5.2-1.3 2.8-1.7 5.1-.5 2.3-3.2 18.3-3.6 23.4-.4 5-.5 9.9-.1 14.5.2 2.7.7 5.2 1.4 7.6 0 0 1 3.6 1.7 3.9.7.3 3.8-2 3.8-2 1.9-1.4 3.3-3.3 4.2-5.7.7-1.7 1.1-3.7 1.3-5.9.1-1.5.3-4.4.3-7 0-2 .7-9.3 1.1-12.4.4-2.9.5-5.7.2-8.1-.2-2-.5-3.9-1.2-5.6zm-4.8-13.8c-.6-.2 10.2 5.8 9.9-2.4-.3-9-7.9-11.4-8.7-11.1-.7.3-2.8 4.9-3.4 8.9-.4 3.9 2.8 4.9 2.2 4.6zm-11.6-12.2c-3.4-6.3-11.6-9.8-15.1-9.8-3.4 0-6.7 1.4-8.6 4.4-1.5 2.3-3.5 8.2-4.1 12.5-.5 3.7-1.5 11.9-2.2 21.9-8.8 1-13.1 2-13.3 2.8-.2.8 1.2 3.3 1.2 3.3 1.7 2.8 6.2 4.8 11.5 4.8-.5 10.9-.1 19.2 0 21.8.3 5.8 3.8 13.5 4.4 13.7.6.2 7.8-5.5 8.7-10.3.8-4.2 0-13.2.3-26.1 4.4-.5 8.5-1 9.9-1.4 2.9-.9 6-3.3 6.1-4.3.1-.9-1.8-3.6-4.6-4.9-1.6-.7-5.8-.8-10.9-.5 1.2-17.9 3-25.7 3.4-26.4 1-1.7 13.1 7.5 13.6 7.4.5-.1.6-.5.8-1.1.4-1.6.7-4.4-1.1-7.8zm68.7 43.7c-.2-4.7-.3-23.3-.3-26.5.1-3.2.3-8.9-.4-20s-8.8-16.4-10-15.6c-1.1.8-2.6 13-2.7 17.3 0 .3-.5 19.4-.8 24.4-8.1 1-15.1 3.1-21 7.1-5.9 4.1-11.4 10.4-10.8 21.3.6 10.9 8.1 15.9 12.4 15.9 4.1 0 8.3-2.2 12.4-6.5 2.8-2.9 5.6-6.9 8.4-11.8v3.3c0 3.7.2 7.1.8 10 .6 3.2 1.9 6.2 3.9 8.9 0 0 3 3.6 3.7 3.7.7 0 2.4-4.5 2.4-4.5 1-2.3 1.2-4.9 1.6-7.3.4-2.3.6-5.8.7-10.2.1-1.4-.1-5.1-.3-9.5zM120 177.4c-3.8-1.7-4.3-8.5 2.2-14.7 6.5-6.2 16.6-7 16.6-7-5.8 19.1-15 23.5-18.8 21.7zm85.5 14.2c0-4.5-.3-11.4-1-18.9-1-9.7-2-17.1-3.1-21.9-1.3-5.8-3.8-13.7-9.9-13.8-6.7-.2-13.8 4.8-21.8 15.3-7.2 9.5-11 17.5-11.1 24-.1 3.8 1.1 7 3.6 9.3 2.4 2.2 5.4 3.4 9.1 3.5 4.6.1 9.4-2.6 15-8.7 0 0 3.3-3.9 4.9-5.9.2 1.4.4 2.7.6 4 1.3 8 4.3 12.5 7.2 15.1 3.4 3 6 3.2 6.3 3 .2 0 .3-1.6.2-5zm-21.9-23c-6.3 10.1-16.1 12.1-12.7 2.1 5-14.5 17.1-20.5 17.1-20.5.7 8-1.6 13.7-4.4 18.4z"/></svg>